<?xml version="1.0" encoding="UTF-8"?>
<svg width="62px" height="25px" viewBox="0 0 62 25" version="1.1" xmlns="http://www.w3.org/2000/svg" xmlns:xlink="http://www.w3.org/1999/xlink">
    <title>balloon</title>
    <g id="Page-1" stroke="none" stroke-width="1" fill="none" fill-rule="evenodd">
        <path d="M58,0.05 C59.0907624,0.05 60.0782624,0.49211881 60.7930718,1.20692821 C61.5078812,1.92173762 61.95,2.90923762 61.95,4 L61.95,4 L61.95,17 C61.95,18.0907624 61.5078812,19.0782624 60.7930718,19.7930718 C60.0782624,20.5078812 59.0907624,20.95 58,20.95 L58,20.95 L34.9792893,20.95 L31,24.9292893 L27.0207107,20.95 L4,20.95 C2.90923762,20.95 1.92173762,20.5078812 1.20692821,19.7930718 C0.49211881,19.0782624 0.05,18.0907624 0.05,17 L0.05,17 L0.05,4 C0.05,2.90923762 0.49211881,1.92173762 1.20692821,1.20692821 C1.92173762,0.49211881 2.90923762,0.05 4,0.05 L4,0.05 L58,0.05 Z" id="Combined-Shape" stroke="#979797" stroke-width="0.1" fill="#FFFFFF"></path>
    </g>
</svg>