<svg width="20" height="21" viewBox="0 0 20 21" fill="none" xmlns="http://www.w3.org/2000/svg">
<mask id="mask0_13_16434" style="mask-type:luminance" maskUnits="userSpaceOnUse" x="3" y="3" width="14" height="15">
<path fill-rule="evenodd" clip-rule="evenodd" d="M7.41096 9.20921C7.56469 9.36372 7.77959 9.45156 7.99998 9.45156C8.22351 9.45156 8.4392 9.36215 8.58586 9.21235C8.74665 9.0547 8.83449 8.84372 8.83449 8.61862C8.83449 8.39509 8.74743 8.1849 8.58978 8.0296L6.18272 5.62019H6.97018C7.43057 5.62019 7.80469 5.24607 7.80469 4.78568C7.80469 4.32529 7.43057 3.95117 6.97018 3.95117H4.16782C3.70743 3.95117 3.33331 4.32529 3.33331 4.78568V7.58882C3.33331 8.04921 3.70743 8.42333 4.16782 8.42333C4.62743 8.42333 5.00155 8.04921 5.00155 7.58882V6.80058L7.41096 9.20921ZM11.4078 9.20686C11.5615 9.36215 11.7772 9.45156 12 9.45156C12.2188 9.45156 12.4337 9.36372 12.589 9.20843L14.9968 6.80058V7.58882C14.9968 8.04921 15.371 8.42333 15.8306 8.42333C16.2886 8.42333 16.6635 8.05 16.6666 7.58882L16.6659 4.78568C16.6659 4.32529 16.291 3.95117 15.8306 3.95117H13.0298C12.5686 3.95117 12.1937 4.32529 12.1937 4.78568C12.1937 5.24607 12.5686 5.62019 13.0298 5.62019H13.8172L11.4133 8.02568C11.2525 8.18333 11.1639 8.39353 11.1639 8.61862C11.1639 8.84372 11.2517 9.05392 11.4078 9.20686ZM6.97018 17.2845H4.16782C3.70743 17.2845 3.33331 16.9104 3.33331 16.4508V13.6476C3.33331 13.1873 3.70743 12.8131 4.16782 12.8131C4.62743 12.8131 5.00155 13.1873 5.00155 13.6476V14.4359L7.41018 12.0288C7.71763 11.7174 8.28782 11.7206 8.59449 12.0327C8.74743 12.1833 8.83449 12.3935 8.83449 12.6178C8.83449 12.8374 8.74978 13.0453 8.59449 13.2037L6.18272 15.6155H6.97018C7.43057 15.6155 7.80469 15.9904 7.80469 16.4508C7.80469 16.9104 7.43057 17.2845 6.97018 17.2845ZM13.0298 17.2845H15.8306C16.291 17.2845 16.6659 16.9104 16.6659 16.4508L16.6666 13.6437C16.6635 13.1857 16.2886 12.8131 15.8306 12.8131C15.371 12.8131 14.9968 13.1873 14.9968 13.6476V14.4359L12.5906 12.0296C12.2815 11.7182 11.709 11.7229 11.4125 12.0249C11.2517 12.1825 11.1639 12.3935 11.1639 12.6178C11.1639 12.8382 11.2502 13.0469 11.4086 13.2076L13.8172 15.6155H13.0298C12.5686 15.6155 12.1937 15.9904 12.1937 16.4508C12.1937 16.9104 12.5686 17.2845 13.0298 17.2845Z" fill="white"/>
</mask>
<g mask="url(#mask0_13_16434)">
<rect y="0.617188" width="20" height="20" fill="#007AB3"/>
</g>
</svg>

