<svg width="20" height="21" viewBox="0 0 20 21" fill="none" xmlns="http://www.w3.org/2000/svg">
<mask id="mask0_13_3954" style="mask-type:luminance" maskUnits="userSpaceOnUse" x="1" y="2" width="18" height="17">
<path fill-rule="evenodd" clip-rule="evenodd" d="M11.4103 4.49005C11.8703 4.49005 12.2437 4.86338 12.2437 5.32338C12.2437 5.78338 11.8703 6.15671 11.4103 6.15671C10.9495 6.15671 10.577 5.78338 10.577 5.32338C10.577 4.86338 10.9495 4.49005 11.4103 4.49005V4.49005ZM16.667 17.6167H15.0003V11.4509C15.0003 10.99 14.627 10.6167 14.167 10.6167H5.83366C5.37283 10.6167 5.00033 10.99 5.00033 11.4509V17.6167H3.33366C3.15033 17.6142 3.00199 17.4667 3.00033 17.2842V3.95005C3.00199 3.76671 3.15033 3.61921 3.33366 3.61671H5.83366V7.28338C5.83366 7.74338 6.20616 8.11671 6.66699 8.11671H13.3337C13.7937 8.11671 14.167 7.74338 14.167 7.28338V3.61671H15.3853L17.0003 5.22755V17.2842C16.9978 17.4667 16.8495 17.6142 16.667 17.6167V17.6167ZM6.33366 17.6167H13.667V11.95H6.33366V17.6167ZM7.16699 5.40421V3.61671H12.8337V6.78338H7.16699V5.40421ZM18.3337 4.95005C18.3345 4.77255 18.2645 4.60255 18.1378 4.47755L16.132 2.47421C16.0045 2.34838 15.8312 2.27921 15.652 2.28338H3.33366C2.41449 2.28588 1.66949 3.03088 1.66699 3.95005V17.2842C1.66949 18.2025 2.41449 18.9475 3.33366 18.9509H16.667C17.5862 18.9475 18.3312 18.2025 18.3337 17.2842V4.95005Z" fill="white"/>
</mask>
<g mask="url(#mask0_13_3954)">
<rect y="0.617188" width="20" height="20" fill="#007AB3"/>
</g>
</svg>

